<svg width="36" height="36" viewBox="0 0 36 36" fill="none" xmlns="http://www.w3.org/2000/svg">
<g clip-path="url(#clip0_4_320)">
<path d="M18 0C8.05896 0 0 8.05896 0 18C0 26.4413 5.81184 33.5246 13.6519 35.4701V23.5008H9.94032V18H13.6519V15.6298C13.6519 9.50328 16.4246 6.6636 22.4395 6.6636C23.58 6.6636 25.5478 6.88752 26.3527 7.11072V12.0967C25.9279 12.0521 25.1899 12.0298 24.2734 12.0298C21.3221 12.0298 20.1816 13.1479 20.1816 16.0546V18H26.0611L25.051 23.5008H20.1816V35.8682C29.0945 34.7918 36.0007 27.203 36.0007 18C36 8.05896 27.941 0 18 0Z" fill="black"/>
</g>
<defs>
<clipPath id="clip0_4_320">
<rect width="36" height="36" fill="white"/>
</clipPath>
</defs>
</svg>
